<svg width="534" height="534" viewBox="0 0 534 534" xmlns="http://www.w3.org/2000/svg"><title>cthulhu</title><g fill="#FFF" fill-rule="evenodd"><path d="M258.938 51.063c-1.273.015-2.557.22-3.782.437-18.72 3.33-36.508 11.632-53 21.094-8.35 4.79-10.587 6.814-14.656 15.844-8.885 19.718-16.243 44.52-21.406 61.25-2.77 8.976-.84 10.523 2 14.28 29.956 39.65 68.11 82.916 88.22 117.345 1.887 3.233 4.35 9.33 10.457-2.06.672-1.583.813-1.112 1.456.11 6.063 11.242 8.516 5.173 10.4 1.95 20.11-34.43 58.262-77.695 88.218-117.344 2.84-3.76 4.77-5.306 2-14.282-5.163-16.73-12.52-41.532-21.406-61.25-4.07-9.03-6.308-11.054-14.657-15.844-16.49-9.462-34.28-17.764-53-21.094-2.45-.436-5.17-.773-7.467.188-1.446.604-2.464 2.2-3.973 2.778-.503.193-1.08.33-1.602.195-1.638-.422-2.596-2.338-4.113-2.972-1.148-.48-2.415-.64-3.688-.626z"/><path d="M267 .28C119.696.28.28 119.697.28 267 .28 414.304 119.697 533.72 267 533.72c147.304 0 266.72-119.416 266.72-266.72C533.72 119.696 414.303.28 267 .28zm0 21.47c135.45 0 245.25 109.8 245.25 245.25S402.45 512.25 267 512.25 21.75 402.45 21.75 267 131.55 21.75 267 21.75z"/><path d="M150.938 72.563c-2.46.066-4.926.493-7.22 1.218-6.39 2.023-16.568 12.114-17.187 21.19-.574 8.43 3.516 3.444 6.032.093 4.358-5.804 13.21-8.227 16.594-6.157 6.335 3.874 4.332 15.117 2.063 22.188-1.635 5.09-7.59 11.217-15.157 17.562 4.287 4.195 7.988 8.956 11.312 13.97 10.306-9.347 19.352-19.564 23.906-32.314 3.2-8.958 2.783-20.12-1.78-28.468-2.25-4.114-6.875-6.894-11.344-8.313-2.292-.726-4.758-1.034-7.22-.968zm-33.875 70.624c-10.006 7.266-19.528 14.01-24.376 18.907-13.47 13.606-26.463 28.47-34.843 45.687-9.44 19.396-10.912 57.893 12.156 77.314 19.182 16.15 47.246 31.627 115.688 22.125 54.516-8.39 55.113 30.1 54.28 69.81-3.504 40.428-11.875 52.773-16.374 59.97-16.717 18.253-27.602 17.856-34.688 9.906-6.758 3.584-13.766 6.79-21.094 8.938 3.07 5.362 6.51 8.767 9.938 11.5 11.344 9.04 34.683 13.59 54.594-5.53 7.854-7.545 17.89-25.002 23.562-49.97 6.312-27.792 13.21-78.815 8.063-99.688-8.27-33.53-10.344-32.952-29.19-41.094-5.033-2.175-19.077-6.28-27.06-23.562-3.015-6.522 4.222-12.99 13.53-4.875 3.772 3.288 3.702 1.456 2.28-1.22-10.023-18.873-21.457-29.565-33.06-43.56-2.38-2.87-4.486-2.444-2.72 2.03 3.09 7.826 7.737 19.346-1.53 33.625-1.556 2.396-1.242.22-.69-.75 3.308-5.798 3.678-6.458 4.126-10.156.34-2.793-.6-4.133-3.156-1.813-2.255 2.048-17.466-3.802-16.625-24.155.18-4.345-.894-4.184-3.656-1.97-22.458 18.013-29.516 55.814-8.97 75.876 2.938 2.87 4.283 4.644 6.53-.874.768-1.88 5.46-10.6 16.376-10.97 4.49-.15 22.29 8.852-.656 21.47-18.25 10.036-79.918 12.104-98.063-15.375-31.424-47.59 30.015-91.092 36.532-97.092 3.025-2.787 6.217-5.507 9.468-8.22-2.1-6.215-5.35-12.112-10.376-16.28zm11.53 177.344c-.588-.003-1.176.014-1.75.033-5.507.18-10.25 1.377-13.187 2.593-9.645 3.995-8.638 19.31-7.906 23.47 1.45 8.23 9.324 12.956 9.75 1.874.156-4.046 1.98-10.062 4.875-11.53 1.774-.9 10.415-2.88 18.875 4.81 1.644 1.496 3.197 3.268 4.656 5.314 4.293-4.28 8.67-8.472 13.25-12.47-.494-.63-.98-1.255-1.5-1.874-7.856-9.354-18.232-12.155-27.062-12.22zm41.438 38.408c-5.688 4.71-11.028 9.723-15.905 15.25.002.01-.002.02 0 .03 1.353 7.246 2.252 15.644 2.594 25.282.48 13.586 1.62 24.32 3.25 32.938 6.984-.404 13.664-3.622 19.405-7.625-.275-1.222-.548-2.438-.78-3.657-2.112-11.033-.07-37.276-8.564-62.22z"/><path d="M206.97 308.656c-6.875-.15-13.933 1.65-20.814 1.594-3.75-.03-5.035 1.063-4.78 3.875.1 1.11-.348 3.014-.782 3.375-26.955 22.39-27.653 23.304-40.72 36.53-9.662 9.784-16.458 19.038-20.874 27.814 7.177 3.118 14.898 4.795 22.72 5.53 2.644-4.276 5.753-8.25 8.655-11.843 13.45-16.652 32.64-28.864 50.625-42.03 5.95-4.356 10.21-7.197 24.78-8.906 5.786-.68 2.626-3.785.94-5.906-6.203-7.8-12.878-9.883-19.75-10.032zm17.53 97.406c-9.99.073-23.347 4.918-42.188 19.125-9.295 7.01-25.69 14.793-36.687 3.938-5.557-5.485-8.55-10.918-9.78-16.188-8.055-1.16-15.92-3.35-23.47-6.375-.332 12.287 3.934 23.412 10.844 33.47 17.208 25.048 43.418 16.93 67.31 3.687 11.538-6.395 21.057-20.01 36.314-16.44 3-6.338 5.028-13.052 6.594-19.874-2.664-.87-5.608-1.368-8.938-1.344zm30.375 17.438c-2.025 6.63-4.49 13.134-7.5 19.375 3.762 7.056 5.2 16.148.344 23.5-2.446 3.7-5.114 8.148-10.626 11.844-8.18 5.482-3.254 6.294 6.625 4.967 11.778-1.58 15.618-14.56 17.374-19.437 5.026-13.957 2.938-31.216-6.22-40.25zM327.75 308.656c-6.874.15-13.58 2.23-19.78 10.03-1.688 2.123-4.848 5.23.936 5.908 14.57 1.71 18.83 4.55 24.78 8.906 10.154 7.432 20.677 14.588 30.345 22.375 2.71-7.39 6.39-14.42 11-20.78-4.727-4.103-11.05-9.382-20.936-17.595-.434-.36-.882-2.264-.78-3.375.253-2.812-1.034-3.905-4.783-3.875-6.88.055-13.906-1.743-20.78-1.594zm63.563 41.844c-4.283 7.215-6.593 15.345-8.22 23.563.408.484.822.976 1.22 1.468 11.15 13.807 25.32 33.29 4.75 53.595-3.773 3.723-8.182 5.254-12.72 5.375 0 .002-.03-.002-.03 0-1.607 6.912-3.81 13.645-6.97 19.938 15.78 4.138 30.876 1.968 42.126-14.407 15.672-22.81 17.78-51.135-16.657-86-1.414-1.43-2.328-2.344-3.5-3.53zm-81.47 55.53c-14.656.045-22.02 10.443-29 16.533-10.008 8.73-12.456 26.73-7.25 41.187 1.757 4.876 5.597 17.856 17.376 19.438 9.878 1.326 14.802.514 6.624-4.97-5.513-3.695-8.18-8.142-10.625-11.843-7.348-11.125-.335-26.315 7.436-32.25 23.8-18.177 35.165 1.51 49.75 9.594.426.235.855.454 1.28.686 4.122-5.352 6.56-11.753 8.064-18.406-.38-.273-.765-.54-1.125-.813-19.056-14.37-32.503-19.185-42.53-19.156z"/><path d="M107.063 117.78c-10.675.147-19.243 5.48-23.376 9.064-15.795 13.695-16.02 24.474-16.03 33.844-.015 12.292 5.032 7.312 6.468.718 2.602-11.948 8.678-23.038 25.97-24.937 31.996-3.516 44.67 48.71 15.843 90.75l-28.532 41.593c4.95 4.74 11.146 8.124 17.625 10.5 2.032-3.33 4.236-6.663 6.626-10 13.637-19.044 24.008-35.96 30.938-50.157 14.882-30.49 10.638-63.224 5.437-71.812-14.072-23.24-28.87-29.728-40.968-29.563zm-33 173.126c-6.648 15.174-13.446 41.28-2.97 71.72 6.54 19 21.325 36.435 51.844 45.5 8.145 2.418 19.763 4.28 32.438 3.624-.51-7.467-.682-14.975-1.25-22.438-3.39.324-6.748.41-10 .22-49.302-2.908-67.363-41.587-50.47-87.063-6.96-3.092-13.5-7.006-19.593-11.564zm153.218 36.938c-.613-.02-1.322-.012-2.124.03-2.85.153-5.992.154-8.47 2.032-.99.752-4.437.97-3.842 5.25 2.992 21.52-14.137 39.208-35.313 48.156.998 7.91 1.51 15.873 1.907 23.844 7.864-2.73 15.583-6.802 22.625-12.687 11.665-9.75 26.594-24.343 30.594-26.283 2.56-1.24 4.82-4.114 4.53-12.062-.29-8.07-.682-16.42-4.405-24.188-1.133-2.366-1.198-3.962-5.5-4.093zM425.47 117.78c-7.304.23-15.514 2.978-23.908 10.282 5.054 4.39 10.615 8.25 16.094 12.157 4.586-3.02 10.056-4.432 16.25-3.75 17.29 1.898 23.335 12.988 25.938 24.936 1.436 6.594 6.514 11.574 6.5-.72-.01-9.368-.267-20.147-16.063-33.842-4.13-3.583-12.7-8.917-23.374-9.063-.478-.006-.95-.014-1.437 0zm-37.94 27.095c-.525.82-1.068 1.603-1.592 2.47-5.202 8.588-9.445 41.322 5.437 71.81 6.93 14.197 17.3 31.114 30.938 50.157 34.157 47.7 31.505 95.465-4.063 113.188 3.072 6.57 5.213 13.606 5.906 20.813 21.797-9.715 33.196-24.64 38.72-40.688 14.545-42.263-4.203-76.155-9.626-84.063l-35.22-51.343c-15.966-23.286-19.2-49.703-13.467-68.032-5.727-4.722-11.504-9.384-17.032-14.313zm-80.842 182.97c-4.3.132-4.366 1.726-5.5 4.092-3.723 7.77-4.114 16.117-4.407 24.188-.287 7.948 1.972 10.82 4.533 12.063 4 1.94 18.93 16.532 30.593 26.28 20.402 17.052 46.425 19.06 65.406 16.532.97-7.51-1.524-15.055-5.375-21.625-.696.057-1.384.114-2.093.156-31.892 1.882-73.237-21.886-68.72-54.374.596-4.28-2.852-4.498-3.843-5.25-2.475-1.878-5.618-1.88-8.467-2.03-.803-.044-1.51-.05-2.125-.032z"/><path d="M384.28 72.344c-2.46-.067-4.925.24-7.217.97-4.47 1.417-9.095 4.197-11.344 8.31-4.564 8.348-4.982 19.543-1.783 28.5 8.78 24.58 34.168 39.745 53.282 57.345 6.516 6 67.954 49.5 36.53 97.093-1.19 1.802-2.554 3.477-4.094 5.03 4.183 6.012 8.145 12.16 11.313 18.72 1.468-1.136 2.882-2.287 4.25-3.438 23.067-19.42 21.564-57.918 12.124-77.313-8.38-17.216-21.372-32.05-34.844-45.656-12.158-12.28-53.743-36.11-58.53-51.03-2.27-7.07-4.274-18.315 2.06-22.19 3.387-2.07 12.238.354 16.595 6.158 2.517 3.352 6.638 8.338 6.063-.094-.62-9.075-10.798-19.165-17.188-21.188-2.293-.725-4.758-1.152-7.22-1.218zm-17.967 120.594c-.77.035-1.07 1.056-.97 3.5.842 20.353-14.4 26.17-16.656 24.125-2.556-2.32-3.463-.95-3.125 1.843.45 3.7.788 4.36 4.094 10.156.554.97.868 3.146-.687.75-9.27-14.28-4.622-25.798-1.533-33.625 1.767-4.473-.307-4.9-2.687-2.03-11.604 13.996-23.07 24.656-33.094 43.53-1.42 2.676-1.46 4.507 2.313 1.22 9.307-8.115 16.543-1.648 13.53 4.874-7.984 17.283-22.028 21.42-27.063 23.595-18.845 8.142-20.918 7.53-29.187 41.063-5.147 20.873 1.72 71.895 8.03 99.687.612 2.688 1.266 5.27 1.97 7.78 5.504-5.266 11.044-10.87 18.156-13.53-1.66-7.64-3.12-17.097-4.156-29.063-.832-39.71-.266-78.17 54.25-69.78 42.504 5.9 69.436 2.145 88.344-5.407-2.69-6.848-5.967-13.433-9.72-19.78-25.514 8.23-59.643 5.128-72.437-1.908-22.946-12.618-5.115-21.588-.625-21.437 10.918.368 15.61 9.057 16.375 10.938 2.248 5.517 3.594 3.743 6.532.875 20.544-20.062 13.487-57.864-8.97-75.875-1.208-.97-2.088-1.528-2.688-1.5zm39.218 127.406c-8.593.284-18.457 3.24-26 12.22-12.55 14.94-17.545 33.372-19.78 49.936 6.304 2.363 12.818 3.95 19.5 4.72 2.24-23.61 8.38-38.045 16.72-45.626 8.458-7.692 17.07-5.713 18.842-4.813 2.896 1.47 4.75 7.455 4.907 11.5.425 11.083 8.268 6.357 9.717-1.874.733-4.157 1.77-19.474-7.875-23.47-3.425-1.417-9.347-2.814-16.03-2.592zm-47.905 89.906c-.234 4.324-.51 7.998-1.03 10.72-4.37 22.83-15.85 47.642-45 15.81-1.204-1.923-2.696-4.244-4.283-7.342-7.066 2.144-13.313 6.704-17.5 12.78 4.337 8.89 8.996 15.47 13.063 19.376 19.91 19.122 43.25 14.604 54.594 5.562 8.605-6.86 17.185-18.07 20.155-53.437-6.788-.44-13.483-1.58-20-3.47z"/></g></svg>